<svg width="120" height="120" viewBox="0 0 120 120" fill="none" xmlns="http://www.w3.org/2000/svg">
<path d="M70 120H50C22.4 120 0 97.6 0 70V50C0 22.4 22.4 0 50 0H70C97.6 0 120 22.4 120 50V70C120 97.6 97.6 120 70 120Z" fill="#FFA0A1"/>
<path fill-rule="evenodd" clip-rule="evenodd" d="M96 90H24V86H96V90Z" fill="white"/>
<path d="M83 54V59C83 61.2 80.3 62.3 78.7 60.8C78.3 60.3 78 59.6 78 59V45H74V50C74 52.2 71.3 53.3 69.7 51.8C69.3 51.3 69 50.6 69 50V36H65V47L60 42L55 47V36H51V50C51 50.7 50.7 51.3 50.3 51.8C48.7 53.3 46 52.2 46 50V45H42V59C42 59.7 41.7 60.3 41.3 60.8C39.7 62.3 37 61.2 37 59V54H33V69V86H87V69V54H83Z" fill="#156FFB"/>
<path d="M42 86H38V82C38 80.9 38.9 80 40 80C41.1 80 42 80.9 42 82V86Z" fill="black"/>
<path d="M51 86H47V82C47 80.9 47.9 80 49 80C50.1 80 51 80.9 51 82V86Z" fill="black"/>
<path d="M64 86H56V78C56 75.8 57.8 74 60 74C62.2 74 64 75.8 64 78V86Z" fill="black"/>
<path d="M73 86H69V82C69 80.9 69.9 80 71 80C72.1 80 73 80.9 73 82V86Z" fill="black"/>
<path d="M82 86H78V82C78 80.9 78.9 80 80 80C81.1 80 82 80.9 82 82V86Z" fill="black"/>
<path d="M51 76H47V72C47 70.9 47.9 70 49 70C50.1 70 51 70.9 51 72V76Z" fill="black"/>
<path d="M62 68H58V64C58 62.9 58.9 62 60 62C61.1 62 62 62.9 62 64V68Z" fill="black"/>
<path d="M62 55H58V51C58 49.9 58.9 49 60 49C61.1 49 62 49.9 62 51V55Z" fill="black"/>
<path d="M73 76H69V72C69 70.9 69.9 70 71 70C72.1 70 73 70.9 73 72V76Z" fill="black"/>
<path d="M51 65H47V61C47 59.9 47.9 59 49 59C50.1 59 51 59.9 51 61V65Z" fill="black"/>
<path d="M73 65H69V61C69 59.9 69.9 59 71 59C72.1 59 73 59.9 73 61V65Z" fill="black"/>
<path d="M82 76H78V72C78 70.9 78.9 70 80 70C81.1 70 82 70.9 82 72V76Z" fill="black"/>
<path d="M42 76H38V72C38 70.9 38.9 70 40 70C41.1 70 42 70.9 42 72V76Z" fill="black"/>
</svg>
