<svg width="120" height="120" viewBox="0 0 120 120" fill="none" xmlns="http://www.w3.org/2000/svg">
<path opacity="0.1" d="M95.9998 23.9998V95.9998H23.9998V23.9998H95.9998ZM97.1998 22.7998H95.9998H23.9998H22.7998V23.9998V95.9998V97.1998H23.9998H95.9998H97.1998V95.9998V23.9998V22.7998Z" fill="#FC4E52"/>
<path d="M70 120H50C22.4 120 0 97.6 0 70V50C0 22.4 22.4 0 50 0H70C97.6 0 120 22.4 120 50V70C120 97.6 97.6 120 70 120Z" fill="#FFA0A1"/>
<path fill-rule="evenodd" clip-rule="evenodd" d="M29.1056 86.2111C30.7188 85.4045 32.5468 84.5 36 84.5C39.4532 84.5 41.2812 85.4045 42.8944 86.2111L42.925 86.2264C44.2985 86.9133 45.4719 87.5 48 87.5C50.5281 87.5 51.7015 86.9133 53.075 86.2264L53.1056 86.2111C54.7188 85.4045 56.5468 84.5 60 84.5C63.4532 84.5 65.2812 85.4045 66.8944 86.2111L66.925 86.2264C68.2985 86.9133 69.4719 87.5 72 87.5C74.5281 87.5 75.7015 86.9133 77.075 86.2264L77.1056 86.2111C78.7188 85.4045 80.5468 84.5 84 84.5C87.4532 84.5 89.2812 85.4045 90.8944 86.2111L90.925 86.2264C92.2985 86.9133 93.4719 87.5 96 87.5V91.5C92.5468 91.5 90.7188 90.5955 89.1056 89.7889L89.075 89.7736C87.7015 89.0867 86.5281 88.5 84 88.5C81.4719 88.5 80.2985 89.0867 78.925 89.7736L78.8944 89.7889C77.2812 90.5955 75.4532 91.5 72 91.5C68.5468 91.5 66.7188 90.5955 65.1056 89.7889L65.075 89.7736C63.7015 89.0867 62.5281 88.5 60 88.5C57.4719 88.5 56.2985 89.0867 54.925 89.7736L54.8944 89.7889C53.2812 90.5955 51.4532 91.5 48 91.5C44.5468 91.5 42.7188 90.5955 41.1056 89.7889L41.075 89.7736C39.7015 89.0867 38.5281 88.5 36 88.5C33.4719 88.5 32.2985 89.0867 30.925 89.7736L30.8944 89.7889C29.2812 90.5955 27.4532 91.5 24 91.5V87.5C26.5281 87.5 27.7015 86.9133 29.075 86.2264L29.1056 86.2111Z" fill="white"/>
<path d="M61.5 49L63.5 91.7H56.5L58.5 49H61.5Z" fill="black"/>
<path d="M60 49C72.2 49 82 58.8 82 71L60 49Z" fill="#156FFB"/>
<path d="M38 71C38 58.8 47.8 49 60 49L38 71Z" fill="#156FFB"/>
<path d="M60 48.9998C68.6 40.3998 82.5 40.3998 91.1 48.9998H60Z" fill="#156FFB"/>
<path d="M28.8999 48.9998C37.4999 40.3998 51.3999 40.3998 59.9999 48.9998H28.8999Z" fill="#156FFB"/>
<path d="M38 27C50.2 27 60 36.8 60 49L38 27Z" fill="#156FFB"/>
<path d="M60 49C60 36.8 69.8 27 82 27L60 49Z" fill="#156FFB"/>
<path d="M38 71C38 58.8 47.8 49 60 49L38 71Z" fill="#156FFB"/>
</svg>
